<?xml version="1.0" encoding="utf-8"?>
<!-- Generator: Adobe Illustrator 19.0.0, SVG Export Plug-In . SVG Version: 6.00 Build 0)  -->
<svg version="1.1" id="Layer_1" xmlns="http://www.w3.org/2000/svg" xmlns:xlink="http://www.w3.org/1999/xlink" x="0px" y="0px"
	 viewBox="-55 146.7 500.6 500.3" style="enable-background:new -55 146.7 500.6 500.3;" xml:space="preserve">
<g>
	<path d="M176.3,398.5c0,51.4-0.1,102.8,0.1,154.2c0,11.1-1,23.2-13.1,24.8c-8,1.1-19.1-3.6-25.3-9.4c-29-27.4-56.5-56.5-85.4-84.1
		c-5.3-5.1-14.1-8.4-21.5-8.9c-20.2-1.2-40.5-0.2-60.7-0.5c-17.7-0.3-24.3-7.2-24.4-24.8c-0.2-34.8-0.2-69.6,0-104.3
		c0.1-17.6,6.7-24.4,24.5-24.7c20.2-0.4,40.5,0.7,60.7-0.5c7.4-0.4,16.2-3.9,21.5-8.9c28.8-27.6,56.4-56.7,85.4-84.1
		c6.2-5.8,17.3-10.4,25.3-9.3c12.1,1.7,13.1,13.9,13,24.9C176.2,294.7,176.3,346.6,176.3,398.5z"/>
	<path d="M444.8,412.2c-5.1,80.5-46.9,150.8-131.9,193.1c-7,3.5-17.2,3.8-24.7,1.7c-4.3-1.2-9.9-11.8-8.5-15.9
		c2.5-7.4,8.6-15.6,15.5-19c41.1-20.3,72.1-50.2,92.2-91.4c45.7-94.2,6.2-208.5-87.8-254.6c-1.4-0.7-2.8-1.4-4.2-2.1
		c-14.6-7.4-19.8-17.2-14.9-28c5.1-11.3,16.6-13.6,32.2-6.4c28.2,13.1,52.7,31.1,73.1,54.5C424.5,288.4,444.7,339.9,444.8,412.2z"/>
	<path d="M368.2,396.3c-2.3,60.9-28.3,106.4-80.3,136.4c-18.4,10.6-30.3,9.5-36.9-2.1c-6.7-11.7-1.4-21.1,17.7-31.9
		c73-41.2,82-139.9,17.2-190.6c-6.9-5.4-14.8-9.5-22.4-14c-14-8.3-18.5-18.3-12.7-28.9c5.7-10.3,16.8-12.7,31.2-5.2
		C337.7,288.7,365.2,335.4,368.2,396.3z"/>
	<path d="M291.5,398.4c-2.3,29.4-14.5,52.7-41.2,67c-10.8,5.8-21.5,6.5-28.8-4.9c-7.4-11.6-1.3-20.1,8.1-27.9
		c7.7-6.5,16.4-13.4,20.6-22.1c7.5-15.7,0.9-32.6-14-43.5c-18.1-13.3-22.1-22.8-13.9-33.5c7.9-10.3,21.2-9.8,37.4,2.1
		C280.8,351,290.2,372.7,291.5,398.4z"/>
</g>
</svg>
